<svg id="Capa_2" data-name="Capa 2" xmlns="http://www.w3.org/2000/svg" viewBox="0 0 1024 1024"><defs><style>.cls-1{fill:#2d3773;}.cls-2{fill:#0ca4ff;}.cls-3{fill:#fff;}.cls-4{fill:#f27405;}</style></defs><path class="cls-1" d="M276.08,932.93V762.66h65.86q42.92,0,64.25,25.45T427.52,847q0,38.16-22.89,62.06t-59.44,23.88Zm52.27-39.17h13.59q13,0,21.9-12.59t8.91-34.31q0-18.58-7.92-32.06t-22.89-13.47H328.35Z"/><path class="cls-1" d="M537.87,932.93l-9.62-33.55H482.63l-10.22,33.55H430l52.56-170.27h55.27l53.4,170.27Zm-46.35-70.72h27.55l-13.78-49.4Z"/><path class="cls-1" d="M674.88,935.55q-35.93,0-58.57-23.82T593.67,848q0-38.16,21.64-63.05T675.38,760q35.55,0,57.94,23.45t22.39,62.62q0,40.54-22.58,65T674.88,935.55Zm-.25-38.67q13.22,0,19-11.54t5.8-42.22q0-44.42-23.82-44.41-25.71,0-25.7,50.65Q649.93,896.88,674.63,896.88Z"/><path class="cls-2" d="M538.17,107l43.65,21.83a6.87,6.87,0,0,1,3.81,6.17v60a6.85,6.85,0,0,1-.78,3.17l51.24,25.62A6.86,6.86,0,0,1,639.9,230l.16,118.73a7,7,0,0,1,3,.72L758.2,407a6.85,6.85,0,0,1,3.81,6.15l.7,338.39c13.87-11.65,50.78-44.82,84.39-93.8,51.44-75,73.4-152.92,65.28-231.65C892.75,236,709.53,115.13,541.16,104a.9.9,0,0,1-.15.19Z"/><path class="cls-2" d="M117.88,432.79c-14.82,170.38,117.58,292,149.63,318.72l-.7-338.36a6.84,6.84,0,0,1,3.8-6.18l115.12-57.56a6.77,6.77,0,0,1,3.34-.72L388.91,230a6.87,6.87,0,0,1,3.81-6.17L444,198.19a6.84,6.84,0,0,1-.77-3.17V135a6.86,6.86,0,0,1,3.8-6.17l40.91-20.45L484,104.52C314.33,119.05,134,247.43,117.88,432.79Z"/><path class="cls-3" d="M918.34,425.44c-9.4-91.12-59-175.44-139.5-237.42-69.35-53.36-156.35-85.65-241.77-90.28l3.94,3.93a1.76,1.76,0,0,1,.15,2.31c168.37,11.15,351.59,132,371.22,322.08,8.12,78.73-13.84,156.67-65.28,231.65-33.61,49-70.52,82.15-84.39,93.8L762,413.12A6.85,6.85,0,0,0,758.2,407L643.1,349.42a7,7,0,0,0-3-.72L639.9,230a6.86,6.86,0,0,0-3.81-6.16l-51.24-25.62a6.85,6.85,0,0,0,.78-3.17V135a6.87,6.87,0,0,0-3.81-6.17L538.17,107l-5.06,5.06,41.55,20.77L514.4,163l-60.25-30.13L493,113.47l-5.07-5.08L447,128.84a6.86,6.86,0,0,0-3.8,6.17v60a6.84,6.84,0,0,0,.77,3.17l-51.23,25.62a6.87,6.87,0,0,0-3.81,6.17l.16,118.71a6.77,6.77,0,0,0-3.34.72L270.61,407a6.84,6.84,0,0,0-3.8,6.18l.7,338.36c-32-26.77-164.45-148.34-149.63-318.72C134,247.43,314.33,119.05,484,104.52l-.35-.35a1.77,1.77,0,0,1,0-2.5l3.45-3.46c-84.54,6.22-169.95,39.43-238.06,93.23C168.6,255,119.88,340.52,111.9,432.27,95.74,618,251.27,746.47,269.06,760.5l.81.65h2.27a6.81,6.81,0,0,0,2.27.39h115.1a7,7,0,0,0,2.28-.39h2.46a6.79,6.79,0,0,0,2.26.39H633.73a6.94,6.94,0,0,0,2.27-.39h2.46a6.79,6.79,0,0,0,2.26.39H755.83a6.9,6.9,0,0,0,2.27-.39h2.27l.82-.64c5-4,50.36-40.39,90.86-99.41,23-33.58,40.5-68.48,51.89-103.73C918,513.76,922.88,469.37,918.34,425.44ZM273.65,413l115.11-57.56.05,0,.05,0c.06,0,.06.05.06.09l.67,399.14a.09.09,0,0,1-.08,0H274.41a.11.11,0,0,1-.11-.11l-.71-341.52A.09.09,0,0,1,273.65,413ZM450,195.11A.09.09,0,0,1,450,195V138.33l56.86,28.43-56.71,28.35A.07.07,0,0,1,450,195.11Zm305.22,218,.67,341.58a.08.08,0,0,1-.07,0H640.72a.1.1,0,0,1-.1-.11l-.71-399.06a.08.08,0,0,1,.05-.09l.06,0,.05,0L755.17,413A.13.13,0,0,1,755.23,413.14ZM633.83,754.65l-.1.11H518.51l-.71-582.51,57.86,28.93h0l57.4,28.7a.11.11,0,0,1,.06.1l.17,124.17a6.93,6.93,0,0,0-.16,1.45Zm-55-559.54c-.06,0-.08,0-.11,0L522,166.76l56.86-28.43V195A.09.09,0,0,1,578.8,195.11Zm-183,34.77L511,172.29l.71,582.47H396.51a.11.11,0,0,1-.1-.11L395.69,230A.12.12,0,0,1,395.75,229.88Z"/><path class="cls-1" d="M274.41,754.76h115.1a.09.09,0,0,0,.08,0l-.67-399.14s0-.06-.06-.09l-.05,0-.05,0L273.65,413a.09.09,0,0,0-.06.09l.71,341.52A.11.11,0,0,0,274.41,754.76ZM344.6,474.07a3.51,3.51,0,0,1,1.94-3.14L374.39,457a3.5,3.5,0,0,1,5.06,3.13v27a3.5,3.5,0,0,1-1.93,3.13l-27.85,13.93a3.5,3.5,0,0,1-5.07-3.13Zm0,203.49a3.51,3.51,0,0,1,1.94-3.13l27.85-13.92a3.5,3.5,0,0,1,5.06,3.13v27a3.5,3.5,0,0,1-1.93,3.13l-27.85,13.93a3.5,3.5,0,0,1-5.07-3.13ZM286,577a3.5,3.5,0,0,1,1.93-3.13L315.75,560a3.5,3.5,0,0,1,5.07,3.13v27a3.51,3.51,0,0,1-1.94,3.14L291,607.18a3.5,3.5,0,0,1-5.06-3.13Z"/><path class="cls-1" d="M633.12,230a.11.11,0,0,0-.06-.1l-57.4-28.7h0L517.8,172.25l.71,582.51H633.73l.1-.11-.7-399a6.93,6.93,0,0,1,.16-1.45ZM530.54,451.86v-27a3.5,3.5,0,0,1,5.06-3.13l27.85,13.93a3.49,3.49,0,0,1,1.94,3.13v27a3.5,3.5,0,0,1-5.07,3.13L532.47,455A3.52,3.52,0,0,1,530.54,451.86Zm41.63,217.43a3.5,3.5,0,0,1-5.06,3.13l-27.85-13.93a3.49,3.49,0,0,1-1.94-3.13v-27a3.5,3.5,0,0,1,5.07-3.13l27.85,13.93a3.5,3.5,0,0,1,1.93,3.13Zm0-386.67a3.5,3.5,0,0,1-5.06,3.13l-27.85-13.92a3.51,3.51,0,0,1-1.94-3.13v-27a3.5,3.5,0,0,1,5.07-3.13l27.85,13.93a3.5,3.5,0,0,1,1.93,3.13Zm47.49,291.7a3.5,3.5,0,0,1-5.07,3.13l-27.85-13.93a3.5,3.5,0,0,1-1.93-3.13v-27a3.5,3.5,0,0,1,5.06-3.13l27.85,13.92a3.51,3.51,0,0,1,1.94,3.14Zm.71-190.75a3.5,3.5,0,0,1-5.06,3.13l-27.85-13.92a3.51,3.51,0,0,1-1.94-3.13v-27a3.5,3.5,0,0,1,5.07-3.13l27.85,13.93a3.5,3.5,0,0,1,1.93,3.13Z"/><path class="cls-1" d="M396.51,754.76H511.73L511,172.29,395.75,229.88a.12.12,0,0,0-.06.1l.72,524.67A.11.11,0,0,0,396.51,754.76Zm101.4-333.32v27a3.49,3.49,0,0,1-1.94,3.13l-27.84,13.93a3.5,3.5,0,0,1-5.07-3.13v-27a3.51,3.51,0,0,1,1.94-3.14l27.84-13.92A3.5,3.5,0,0,1,497.91,421.44ZM456.28,252.21a3.5,3.5,0,0,1,1.93-3.13l27.85-13.93a3.5,3.5,0,0,1,5.07,3.13v27a3.51,3.51,0,0,1-1.94,3.13l-27.85,13.92a3.5,3.5,0,0,1-5.06-3.13Zm0,386.66a3.52,3.52,0,0,1,1.93-3.13l27.85-13.92a3.5,3.5,0,0,1,5.07,3.13v27a3.49,3.49,0,0,1-1.94,3.13L461.34,669a3.5,3.5,0,0,1-5.06-3.13ZM443.64,557a3.5,3.5,0,0,1-1.93,3.13l-27.85,13.93a3.5,3.5,0,0,1-5.07-3.13v-27a3.51,3.51,0,0,1,1.94-3.13l27.84-13.92a3.5,3.5,0,0,1,5.07,3.13ZM408.07,353.16A3.49,3.49,0,0,1,410,350l27.85-13.93a3.5,3.5,0,0,1,5.06,3.13v27a3.5,3.5,0,0,1-1.93,3.13l-27.85,13.93a3.5,3.5,0,0,1-5.07-3.13Z"/><path class="cls-1" d="M640.07,355.49l-.05,0-.06,0a.08.08,0,0,0-.05.09l.71,399.06a.1.1,0,0,0,.1.11H755.83a.08.08,0,0,0,.07,0l-.67-341.58a.13.13,0,0,0-.06-.1Zm69.38,209.62a3.5,3.5,0,0,1,5.07-3.13l27.85,13.92A3.52,3.52,0,0,1,744.3,579v27a3.5,3.5,0,0,1-5.06,3.13l-27.85-13.93a3.49,3.49,0,0,1-1.94-3.13Zm-58.63-103a3.5,3.5,0,0,1,5.06-3.13l27.85,13.92a3.51,3.51,0,0,1,1.94,3.13v27a3.5,3.5,0,0,1-5.07,3.13L652.75,492.3a3.5,3.5,0,0,1-1.93-3.13Zm0,203.5a3.49,3.49,0,0,1,5.06-3.13l27.85,13.92a3.5,3.5,0,0,1,1.94,3.13v27a3.5,3.5,0,0,1-5.07,3.13L652.75,695.8a3.51,3.51,0,0,1-1.93-3.13Z"/><path class="cls-1" d="M534.78,127.86a2.49,2.49,0,1,1,0,5H489.9a2.49,2.49,0,1,1,0-5h17.45L493,113.47l-38.81,19.37L514.4,163l60.26-30.13-41.55-20.77-15.79,15.79Z"/><path class="cls-1" d="M522,166.76l56.7,28.35s0,0,.11,0a.09.09,0,0,0,.05-.09V138.33Z"/><path class="cls-1" d="M450,138.33V195a.09.09,0,0,0,.05.09.07.07,0,0,0,.1,0l56.71-28.35Z"/><path class="cls-3" d="M487.4,130.35a2.49,2.49,0,0,0,2.5,2.49h44.88a2.49,2.49,0,1,0,0-5H517.32l-3.73,3.73h-2.5l-3.74-3.73H489.9A2.49,2.49,0,0,0,487.4,130.35Z"/><path class="cls-4" d="M483.67,101.67a1.77,1.77,0,0,0,0,2.5l.35.35,3.88,3.87,5.07,5.08,14.39,14.39,3.74,3.73h2.5l3.73-3.73,15.79-15.79,5.06-5.06,2.84-2.84a.9.9,0,0,0,.15-.19,1.76,1.76,0,0,0-.15-2.31l-3.94-3.93L513.59,74.25a1.77,1.77,0,0,0-2.5,0l-24,24Z"/><path class="cls-3" d="M413.14,383.31,441,369.38a3.5,3.5,0,0,0,1.93-3.13v-27a3.5,3.5,0,0,0-5.06-3.13L410,350a3.49,3.49,0,0,0-1.94,3.13v27A3.5,3.5,0,0,0,413.14,383.31Z"/><path class="cls-3" d="M349.67,707.72l27.85-13.93a3.5,3.5,0,0,0,1.93-3.13v-27a3.5,3.5,0,0,0-5.06-3.13l-27.85,13.92a3.51,3.51,0,0,0-1.94,3.13v27A3.5,3.5,0,0,0,349.67,707.72Z"/><path class="cls-3" d="M291,607.18l27.85-13.92a3.51,3.51,0,0,0,1.94-3.14v-27a3.5,3.5,0,0,0-5.07-3.13L287.9,573.9A3.5,3.5,0,0,0,286,577v27A3.5,3.5,0,0,0,291,607.18Z"/><path class="cls-3" d="M349.67,504.22l27.85-13.93a3.5,3.5,0,0,0,1.93-3.13v-27a3.5,3.5,0,0,0-5.06-3.13l-27.85,13.92a3.51,3.51,0,0,0-1.94,3.14v27A3.5,3.5,0,0,0,349.67,504.22Z"/><path class="cls-3" d="M463.06,435.37v27a3.5,3.5,0,0,0,5.07,3.13L496,451.59a3.49,3.49,0,0,0,1.94-3.13v-27a3.5,3.5,0,0,0-5.07-3.13L465,432.23A3.51,3.51,0,0,0,463.06,435.37Z"/><path class="cls-3" d="M438.57,526.85l-27.84,13.92a3.51,3.51,0,0,0-1.94,3.13v27a3.5,3.5,0,0,0,5.07,3.13l27.85-13.93a3.5,3.5,0,0,0,1.93-3.13V530A3.5,3.5,0,0,0,438.57,526.85Z"/><path class="cls-3" d="M461.34,669l27.85-13.93a3.49,3.49,0,0,0,1.94-3.13V625a3.5,3.5,0,0,0-5.07-3.13l-27.85,13.92a3.52,3.52,0,0,0-1.93,3.13v27A3.5,3.5,0,0,0,461.34,669Z"/><path class="cls-3" d="M461.34,282.36l27.85-13.92a3.51,3.51,0,0,0,1.94-3.13v-27a3.5,3.5,0,0,0-5.07-3.13l-27.85,13.93a3.5,3.5,0,0,0-1.93,3.13v27A3.5,3.5,0,0,0,461.34,282.36Z"/><path class="cls-3" d="M618.44,353.42l-27.85-13.93a3.5,3.5,0,0,0-5.07,3.13v27a3.51,3.51,0,0,0,1.94,3.13l27.85,13.92a3.5,3.5,0,0,0,5.06-3.13v-27A3.5,3.5,0,0,0,618.44,353.42Z"/><path class="cls-3" d="M565.39,465.78v-27a3.49,3.49,0,0,0-1.94-3.13L535.6,421.7a3.5,3.5,0,0,0-5.06,3.13v27a3.52,3.52,0,0,0,1.93,3.13l27.85,13.92A3.5,3.5,0,0,0,565.39,465.78Z"/><path class="cls-3" d="M617.72,544.16l-27.85-13.92a3.5,3.5,0,0,0-5.06,3.13v27a3.5,3.5,0,0,0,1.93,3.13l27.85,13.93a3.5,3.5,0,0,0,5.07-3.13v-27A3.51,3.51,0,0,0,617.72,544.16Z"/><path class="cls-3" d="M570.24,639.14l-27.85-13.93a3.5,3.5,0,0,0-5.07,3.13v27a3.49,3.49,0,0,0,1.94,3.13l27.85,13.93a3.5,3.5,0,0,0,5.06-3.13v-27A3.5,3.5,0,0,0,570.24,639.14Z"/><path class="cls-3" d="M570.24,252.47l-27.85-13.93a3.5,3.5,0,0,0-5.07,3.13v27a3.51,3.51,0,0,0,1.94,3.13l27.85,13.92a3.5,3.5,0,0,0,5.06-3.13v-27A3.5,3.5,0,0,0,570.24,252.47Z"/><path class="cls-3" d="M652.75,695.8l27.85,13.92a3.5,3.5,0,0,0,5.07-3.13v-27a3.5,3.5,0,0,0-1.94-3.13l-27.85-13.92a3.49,3.49,0,0,0-5.06,3.13v27A3.51,3.51,0,0,0,652.75,695.8Z"/><path class="cls-3" d="M711.39,595.26l27.85,13.93a3.5,3.5,0,0,0,5.06-3.13V579a3.52,3.52,0,0,0-1.93-3.13L714.52,562a3.5,3.5,0,0,0-5.07,3.13v27A3.49,3.49,0,0,0,711.39,595.26Z"/><path class="cls-3" d="M652.75,492.3l27.85,13.93a3.5,3.5,0,0,0,5.07-3.13v-27a3.51,3.51,0,0,0-1.94-3.13L655.88,459a3.5,3.5,0,0,0-5.06,3.13v27A3.5,3.5,0,0,0,652.75,492.3Z"/></svg>